<svg version="1.1" id="Layer_1" xmlns="http://www.w3.org/2000/svg" xmlns:xlink="http://www.w3.org/1999/xlink" x="0px" y="0px"
	 width="169" height:"44" viewBox="0 0 169 44" enable-background="new 0 0 1200 400" xml:space="preserve">
<path fill="none" opacity="1.000000" stroke="none" 
	d="                                
M785.000000,401.000000 
	C523.333313,401.000000 262.166656,401.000000 1.000000,401.000000 
	C1.000000,267.666656 1.000000,134.333328 1.000000,1.000000 
	C401.000000,1.000000 801.000000,1.000000 1201.000000,1.000000 
	C1201.000000,134.333328 1201.000000,267.666656 1201.000000,401.000000 
	C1062.500000,401.000000 924.000000,401.000000 785.000000,401.000000 
M637.923096,114.000038 
	C560.004028,114.000038 482.084930,114.000038 404.330200,114.000038 
	C404.330200,167.576065 404.330200,220.525665 404.330200,272.845612 
	C405.978180,271.049652 407.492218,267.853088 409.622772,267.368835 
	C415.934174,265.934204 416.206116,261.184784 416.982269,256.463104 
	C417.115875,255.650284 416.897308,254.776871 417.047913,253.969986 
	C420.012848,238.084442 423.105255,222.222107 425.973328,206.319275 
	C429.734131,185.466766 433.357666,164.589188 436.952057,143.707230 
	C437.564911,140.146667 439.430542,136.040085 433.445557,134.603455 
	C432.301361,134.328781 431.273376,131.422836 431.129913,129.654739 
	C430.938568,127.296303 431.709656,124.868599 431.987335,122.461418 
	C432.527466,117.779472 434.833374,115.851112 439.806091,115.904129 
	C460.969604,116.129730 482.137268,116.077301 503.302551,115.963463 
	C512.266357,115.915260 512.234436,117.481506 512.841187,125.225441 
	C513.529053,134.004547 513.053833,142.879654 512.949341,151.711411 
	C512.930969,153.267731 512.766113,155.398071 511.785767,156.267441 
	C507.571320,160.004822 502.316162,159.957977 497.698273,157.771576 
	C495.239990,156.607651 493.241943,153.403564 492.158783,150.674744 
	C490.815552,147.290833 490.996552,143.324921 489.834564,139.838593 
	C488.948059,137.178757 487.933685,133.562241 483.022827,135.474014 
	C480.113281,151.922607 477.141632,168.722092 474.171356,185.514069 
	C479.341705,187.841400 480.467133,183.629028 481.740906,180.513702 
	C486.035095,170.010895 485.929077,169.967560 496.450714,170.000000 
	C502.545441,170.018784 503.694244,170.556183 502.854828,176.534073 
	C500.991608,189.802261 498.567200,203.008057 495.771790,216.111343 
	C495.349060,218.092834 491.781097,219.507294 489.508606,220.929367 
	C488.789978,221.379089 487.552582,220.999908 486.552612,221.000000 
	C478.538971,221.000778 477.056427,219.518295 476.972473,211.660675 
	C476.955231,210.048447 476.944855,208.257919 476.253632,206.892670 
	C475.779053,205.955261 474.061401,205.032715 473.029938,205.160156 
	C471.942230,205.294525 470.477905,206.505051 470.121338,207.563248 
	C469.407532,209.681656 469.386932,212.025635 468.992706,214.261063 
	C466.745575,227.003006 464.437622,239.734329 462.225830,252.482376 
	C461.347809,257.543182 460.663727,262.637604 459.891357,267.716736 
	C460.318268,268.090302 460.745178,268.463898 461.172119,268.837463 
	C463.017120,267.490387 465.461487,266.520416 466.591827,264.723755 
	C469.669617,259.831604 472.444336,254.706680 474.871918,249.457886 
	C478.063019,242.558273 483.206818,239.209808 490.692780,240.083099 
	C494.354401,240.510254 498.272034,241.742905 496.980377,246.841873 
	C495.212646,253.820175 493.220428,260.752167 491.027527,267.609039 
	C489.027466,273.863068 486.631592,279.990479 484.560120,285.756287 
	C489.189178,285.756287 494.863495,285.756287 500.671143,285.756287 
	C497.150574,279.719238 498.847565,271.710724 504.064758,267.305817 
	C505.423584,266.158569 506.531219,264.243500 506.914581,262.496765 
	C508.228271,256.511536 509.152710,250.441467 510.255188,244.409149 
	C512.492981,232.164337 514.773560,219.927307 516.992737,207.679108 
	C519.299133,194.949615 521.613953,182.221024 523.790405,169.469040 
	C524.359924,166.132263 525.852478,160.643661 524.475281,159.695343 
	C519.314087,156.141464 521.327576,152.026291 522.044556,147.927689 
	C523.065979,142.089172 524.672913,140.939453 529.989929,140.978714 
	C539.989014,141.052536 549.989014,140.999863 559.988647,141.000031 
	C567.327698,141.000153 567.327698,141.000336 568.529785,147.857117 
	C583.544922,139.394684 584.725769,139.891190 596.862488,139.996017 
	C607.401184,140.087051 616.923462,151.856522 614.979736,162.261841 
	C613.228455,171.636749 611.670044,181.047546 609.995605,190.436981 
	C608.093567,201.102921 606.146973,211.760925 604.238281,222.425690 
	C601.816345,235.957489 599.394714,249.489441 597.035278,263.032196 
	C596.841431,264.144867 596.667053,265.711670 597.257568,266.440155 
	C602.725403,273.185699 599.405884,279.481598 596.579102,285.726837 
	C604.195923,285.726837 611.875916,285.726837 619.774292,285.726837 
	C614.167114,278.994446 613.311523,271.752136 614.908142,263.639618 
	C617.439209,250.778885 619.347900,237.796402 621.578796,224.875610 
	C623.339844,214.676010 625.204041,204.494278 626.996033,194.299973 
	C628.919617,183.357452 630.812134,172.409485 632.718506,161.462189 
	C626.926086,160.311417 627.286194,159.392685 627.527161,153.569138 
	C627.861938,145.474945 631.139526,141.052689 639.719421,139.956970 
	C647.860657,136.009735 655.518982,130.899109 658.832275,122.406517 
	C661.750549,114.926491 666.371399,113.453979 673.316711,113.920021 
	C679.395569,114.327919 680.326782,114.583504 679.904968,120.474159 
	C679.422180,127.218132 678.214233,133.910187 677.275513,140.969498 
	C682.036804,140.338242 685.835327,141.884018 685.832886,146.791931 
	C685.827454,157.921082 683.516357,160.313568 673.388000,161.366592 
	C672.599670,165.622681 671.754761,169.916443 671.014465,174.228165 
	C668.255310,190.298203 665.610229,206.388245 662.768738,222.443573 
	C660.300598,236.388809 657.583862,250.290039 655.121826,264.236298 
	C654.933960,265.300354 655.577271,267.255951 656.380737,267.633179 
	C663.268921,270.867279 660.916443,276.707611 660.542053,281.895294 
	C660.318481,284.992279 658.480713,286.256866 655.170532,286.076416 
	C649.913391,285.789825 644.629211,285.999939 639.324951,285.999939 
	C639.324951,309.285522 639.324951,331.994415 639.324951,354.680359 
	C713.997314,354.680359 788.344299,354.680359 863.164001,354.680359 
	C863.164001,332.241577 863.164001,310.120575 864.077087,287.999939 
	C900.178223,287.999939 936.279297,287.999939 972.380432,287.999939 
	C964.846130,285.999268 958.710266,282.243774 957.405273,274.455505 
	C956.323364,267.998138 956.377136,261.100647 957.329224,254.603531 
	C959.413330,240.382339 962.481323,226.308105 964.973389,212.143234 
	C967.907288,195.466873 970.657043,178.758118 973.487793,162.056320 
	C967.575745,158.198700 967.882385,145.233887 974.023926,141.563797 
	C974.670837,141.177231 975.549255,141.025558 976.320984,141.023422 
	C988.150574,140.990631 999.980835,140.931076 1011.809448,141.041214 
	C1015.615479,141.076645 1017.522461,143.551804 1016.932007,147.127380 
	C1014.956909,159.088821 1012.684387,171.000977 1010.556152,182.937393 
	C1008.682922,193.443085 1006.845825,203.955231 1005.001160,214.465973 
	C1002.875671,226.576584 1000.899475,238.716217 998.537903,250.780487 
	C997.964722,253.708572 997.425781,256.395660 1000.303711,257.877289 
	C1002.637634,259.078857 1006.461609,255.716339 1006.978577,252.367386 
	C1007.424622,249.477707 1007.590454,246.540787 1008.117676,243.668350 
	C1010.363098,231.433731 1012.771423,219.228745 1014.978821,206.987442 
	C1017.561707,192.664139 1020.021057,178.318298 1022.450745,163.968140 
	C1022.635559,162.876175 1022.584961,161.210220 1021.919067,160.593292 
	C1016.823242,155.872086 1018.684448,150.250473 1020.257874,145.092377 
	C1020.805542,143.296997 1024.065552,141.249847 1026.148438,141.181137 
	C1037.632446,140.802307 1049.136108,141.080368 1060.631226,140.957520 
	C1064.793945,140.913010 1066.454346,142.857071 1065.964600,146.728302 
	C1065.457031,150.739304 1064.673462,154.715668 1063.998169,158.705078 
	C1061.324097,174.502579 1058.760620,190.319916 1055.937866,206.090805 
	C1052.750122,223.901291 1049.304443,241.665497 1046.038696,259.462250 
	C1045.645264,261.605682 1044.697510,265.027771 1045.666626,265.815704 
	C1051.739136,270.753052 1049.479858,276.587311 1047.825073,282.171509 
	C1047.352417,283.766388 1044.813843,285.788696 1043.175537,285.832092 
	C1031.354248,286.145050 1019.517761,286.126099 1007.694519,285.849701 
	C1006.107239,285.812622 1004.378662,283.923981 1003.071594,282.553223 
	C1002.192749,281.631439 1001.941223,280.111450 1001.609070,279.329834 
	C994.690125,282.355927 988.166077,285.209320 982.175232,287.829498 
	C1026.154175,287.829498 1070.822144,287.829498 1115.014893,287.829498 
	C1110.945190,285.895355 1106.548340,283.805664 1102.961304,282.100922 
	C1100.729858,283.404968 1098.543091,285.752045 1096.283813,285.824036 
	C1084.466064,286.200531 1072.629272,286.065735 1060.801514,285.913849 
	C1059.373657,285.895538 1057.476929,285.072662 1056.633423,283.978333 
	C1054.271240,280.913910 1057.356201,271.132019 1060.435791,268.715546 
	C1062.455322,267.130951 1064.362427,264.490906 1064.856812,262.029694 
	C1067.213013,250.299088 1068.985718,238.452881 1071.122192,226.676117 
	C1074.006104,210.779114 1077.119751,194.923584 1079.972900,179.021194 
	C1082.591919,164.423935 1084.995972,149.788071 1087.587524,134.626816 
	C1082.572632,133.817673 1082.456055,129.896454 1083.077637,125.998184 
	C1083.621216,122.590675 1084.831909,119.289604 1085.711182,116.075439 
	C1046.411255,116.075439 1006.437012,116.075439 966.244751,116.075439 
	C970.605408,119.934631 967.997620,124.458450 967.658264,128.635269 
	C967.354309,132.375961 965.453796,135.074310 961.450623,136.337234 
	C959.715576,136.884613 957.501343,138.799850 957.166687,140.434113 
	C954.865234,151.673157 952.961853,162.995041 951.011902,174.304337 
	C948.866699,186.745850 946.903259,199.219238 944.689331,211.648239 
	C941.883850,227.398209 938.825867,243.103546 936.092896,258.865601 
	C935.704163,261.107422 935.671326,264.838257 936.944702,265.695923 
	C942.717285,269.583832 940.742554,274.425476 940.222168,279.660980 
	C939.657227,285.343903 936.676025,286.161804 932.029785,286.046753 
	C924.869751,285.869324 917.702026,286.000000 910.537598,286.000000 
	C903.206543,286.000000 895.846191,286.406738 888.553101,285.880737 
	C881.826965,285.395630 875.175537,286.448700 868.485657,286.025818 
	C866.667908,285.910919 864.830261,286.110413 862.073486,286.026886 
	C851.911133,286.017853 841.745544,286.135620 831.589294,285.882233 
	C829.773438,285.836945 827.199280,284.723480 826.358765,283.291290 
	C824.312073,279.803528 828.041931,269.046967 831.678528,266.728424 
	C834.799683,264.738464 837.418701,262.795349 837.404358,258.370392 
	C837.391907,254.503815 838.420776,250.620392 839.116272,246.767288 
	C842.387390,228.644745 845.697510,210.529205 849.002991,192.412888 
	C851.635498,177.985077 854.553772,163.601273 856.765747,149.109497 
	C857.489746,144.365707 859.567322,139.691696 854.653381,134.471237 
	C849.134705,128.608322 854.910645,116.687035 862.716614,115.578575 
	C862.716614,101.189651 862.716614,86.784851 862.716614,72.307320 
	C788.066406,72.307320 713.700073,72.307320 638.836182,72.307320 
	C638.836182,86.407791 638.836182,100.204102 637.923096,114.000038 
M194.500000,63.000000 
	C143.750504,63.000000 93.001022,63.000000 42.391296,63.000000 
	C42.391296,157.408173 42.391296,251.121643 42.391296,344.741241 
	C136.044952,344.741241 229.307114,344.741241 322.697083,344.741241 
	C322.697083,250.769028 322.697083,157.055847 322.697083,63.000000 
	C280.096710,63.000000 237.798355,63.000000 194.500000,63.000000 
M358.000000,214.500000 
	C358.000000,164.078369 358.000000,113.656746 358.000000,63.211380 
	C355.054199,63.211380 352.778076,63.211380 350.252441,63.211380 
	C350.252441,157.139709 350.252441,250.857193 350.252441,344.695068 
	C352.895386,344.695068 355.282043,344.695068 358.000000,344.695068 
	C358.000000,301.427643 358.000000,258.463837 358.000000,214.500000 
M1154.044067,260.519165 
	C1148.099365,273.874237 1139.096313,283.912659 1123.730713,287.763092 
	C1139.854126,287.763092 1155.268677,287.763092 1170.750610,287.763092 
	C1170.750610,250.830338 1170.750610,214.135010 1170.750610,177.439682 
	C1169.990845,184.131943 1169.723267,190.851593 1168.940918,197.510773 
	C1168.014648,205.393372 1167.206909,213.360397 1165.340820,221.046310 
	C1162.168579,234.110977 1158.208984,246.984436 1154.044067,260.519165 
M1171.000000,144.500000 
	C1171.000000,135.084610 1171.000000,125.669205 1171.000000,116.194443 
	C1156.462524,116.194443 1142.456055,116.194443 1128.795044,116.194443 
	C1132.391235,125.698273 1126.527100,134.651825 1127.226196,143.937454 
	C1138.239990,139.944778 1149.014282,136.188217 1159.391602,144.905655 
	C1168.927612,152.916367 1170.523560,163.853424 1171.000000,175.340912 
	C1171.000000,165.393936 1171.000000,155.446976 1171.000000,144.500000 
M565.002869,214.611832 
	C567.667542,200.180191 570.384521,185.757538 572.864990,171.294327 
	C573.011902,170.437576 571.046082,168.256989 570.423218,168.389084 
	C566.933472,169.129074 563.786804,170.546234 563.060425,174.759506 
	C560.755920,188.126099 558.310364,201.468399 556.015137,214.836563 
	C553.225586,231.084091 550.504700,247.343704 547.861511,263.615540 
	C547.679810,264.734161 548.035889,266.299103 548.748779,267.144867 
	C552.855835,272.016998 551.753967,281.765289 546.231262,285.800598 
	C550.829651,285.800598 555.158875,285.800598 559.989868,285.800598 
	C553.919434,278.430725 555.157715,270.610748 556.855164,262.289154 
	C560.018066,246.784149 562.332520,231.106049 565.002869,214.611832 
M1120.002319,179.691833 
	C1118.335083,189.569366 1116.665039,199.446442 1115.001343,209.324570 
	C1112.317505,225.259048 1109.606689,241.189117 1107.007812,257.137451 
	C1106.765747,258.623413 1107.245117,260.226868 1107.389526,261.775787 
	C1109.046875,260.913696 1111.762085,260.403198 1112.185059,259.130798 
	C1114.439453,252.348099 1116.443237,245.443192 1117.925415,238.451630 
	C1120.199707,227.723648 1122.028687,216.899597 1123.954468,206.099854 
	C1126.024414,194.490814 1128.069946,182.875778 1129.919800,171.230591 
	C1130.241943,169.202896 1130.980591,166.239380 1127.227173,166.006821 
	C1124.131592,165.815033 1122.291870,166.915817 1121.927856,170.355804 
	C1121.626221,173.207947 1120.688965,175.992798 1120.002319,179.691833 
M884.037537,245.761017 
	C883.465881,249.268982 882.544006,252.763580 882.409729,256.288208 
	C882.234802,260.875824 878.315796,266.053253 884.064636,269.957642 
	C890.257019,263.208649 890.261169,263.209473 892.019714,254.161377 
	C892.880615,249.731842 893.771851,245.307404 894.563965,240.865433 
	C896.732361,228.706802 898.855408,216.540085 901.062500,204.001099 
	C898.501282,204.001099 896.292175,203.675598 894.252869,204.123337 
	C893.032043,204.391373 891.320312,205.729233 891.117798,206.824509 
	C888.769592,219.523361 886.667419,232.267715 884.037537,245.761017 
M902.167664,185.998123 
	C903.110901,185.096512 904.704895,184.316437 904.899475,183.274994 
	C907.685913,168.356308 910.322693,153.408966 912.842468,138.442734 
	C913.017761,137.401581 912.274902,135.813217 911.432556,135.108444 
	C910.655579,134.458359 908.598022,134.081940 908.097961,134.580826 
	C906.181274,136.492950 904.209595,138.602539 903.126343,141.026306 
	C902.038574,143.460281 901.962952,146.352432 901.481506,149.050507 
	C899.307007,161.236389 897.145996,173.424652 894.911255,185.999878 
	C897.318909,185.999878 899.293396,185.999878 902.167664,185.998123 
z"/>
<path fill="#E2D703" opacity="1.000000" stroke="none" 
	d="
M195.000000,63.000000 
	C237.798355,63.000000 280.096710,63.000000 322.697083,63.000000 
	C322.697083,157.055847 322.697083,250.769028 322.697083,344.741241 
	C229.307114,344.741241 136.044952,344.741241 42.391296,344.741241 
	C42.391296,251.121643 42.391296,157.408173 42.391296,63.000000 
	C93.001022,63.000000 143.750504,63.000000 195.000000,63.000000 
z"/>
<path fill="#E2D703" opacity="1.000000" stroke="none" 
	d="
M863.164062,287.999603 
	C863.164001,310.120575 863.164001,332.241577 863.164001,354.680359 
	C788.344299,354.680359 713.997314,354.680359 639.324951,354.680359 
	C639.324951,331.994415 639.324951,309.285522 639.324951,285.999939 
	C644.629211,285.999939 649.913391,285.789825 655.170532,286.076416 
	C658.480713,286.256866 660.318481,284.992279 660.542053,281.895294 
	C660.916443,276.707611 663.268921,270.867279 656.380737,267.633179 
	C655.577271,267.255951 654.933960,265.300354 655.121826,264.236298 
	C657.583862,250.290039 660.300598,236.388809 662.768738,222.443573 
	C665.610229,206.388245 668.255310,190.298203 671.014465,174.228165 
	C671.754761,169.916443 672.599670,165.622681 673.388000,161.366592 
	C683.516357,160.313568 685.827454,157.921082 685.832886,146.791931 
	C685.835327,141.884018 682.036804,140.338242 677.275513,140.969498 
	C678.214233,133.910187 679.422180,127.218132 679.904968,120.474159 
	C680.326782,114.583504 679.395569,114.327919 673.316711,113.920021 
	C666.371399,113.453979 661.750549,114.926491 658.832275,122.406517 
	C655.518982,130.899109 647.860657,136.009735 639.359497,139.438126 
	C638.945129,130.612991 638.890625,122.306709 638.836182,114.000420 
	C638.836182,100.204102 638.836182,86.407791 638.836182,72.307320 
	C713.700073,72.307320 788.066406,72.307320 862.716614,72.307320 
	C862.716614,86.784851 862.716614,101.189651 862.716614,115.578575 
	C854.910645,116.687035 849.134705,128.608322 854.653381,134.471237 
	C859.567322,139.691696 857.489746,144.365707 856.765747,149.109497 
	C854.553772,163.601273 851.635498,177.985077 849.002991,192.412888 
	C845.697510,210.529205 842.387390,228.644745 839.116272,246.767288 
	C838.420776,250.620392 837.391907,254.503815 837.404358,258.370392 
	C837.418701,262.795349 834.799683,264.738464 831.678528,266.728424 
	C828.041931,269.046967 824.312073,279.803528 826.358765,283.291290 
	C827.199280,284.723480 829.773438,285.836945 831.589294,285.882233 
	C841.745544,286.135620 851.911133,286.017853 862.538330,286.404663 
	C863.056763,287.188141 863.110413,287.593872 863.164062,287.999603 
z"/>
<path fill="#000000" opacity="1.000000" stroke="none" 
	d="
M638.379639,114.000229 
	C638.890625,122.306709 638.945129,130.612991 638.999146,139.376663 
	C631.139526,141.052689 627.861938,145.474945 627.527161,153.569138 
	C627.286194,159.392685 626.926086,160.311417 632.718506,161.462189 
	C630.812134,172.409485 628.919617,183.357452 626.996033,194.299973 
	C625.204041,204.494278 623.339844,214.676010 621.578796,224.875610 
	C619.347900,237.796402 617.439209,250.778885 614.908142,263.639618 
	C613.311523,271.752136 614.167114,278.994446 619.774292,285.726837 
	C611.875916,285.726837 604.195923,285.726837 596.579102,285.726837 
	C599.405884,279.481598 602.725403,273.185699 597.257568,266.440155 
	C596.667053,265.711670 596.841431,264.144867 597.035278,263.032196 
	C599.394714,249.489441 601.816345,235.957489 604.238281,222.425690 
	C606.146973,211.760925 608.093567,201.102921 609.995605,190.436981 
	C611.670044,181.047546 613.228455,171.636749 614.979736,162.261841 
	C616.923462,151.856522 607.401184,140.087051 596.862488,139.996017 
	C584.725769,139.891190 583.544922,139.394684 568.529785,147.857117 
	C567.327698,141.000336 567.327698,141.000153 559.988647,141.000031 
	C549.989014,140.999863 539.989014,141.052536 529.989929,140.978714 
	C524.672913,140.939453 523.065979,142.089172 522.044556,147.927689 
	C521.327576,152.026291 519.314087,156.141464 524.475281,159.695343 
	C525.852478,160.643661 524.359924,166.132263 523.790405,169.469040 
	C521.613953,182.221024 519.299133,194.949615 516.992737,207.679108 
	C514.773560,219.927307 512.492981,232.164337 510.255188,244.409149 
	C509.152710,250.441467 508.228271,256.511536 506.914581,262.496765 
	C506.531219,264.243500 505.423584,266.158569 504.064758,267.305817 
	C498.847565,271.710724 497.150574,279.719238 500.671143,285.756287 
	C494.863495,285.756287 489.189178,285.756287 484.560120,285.756287 
	C486.631592,279.990479 489.027466,273.863068 491.027527,267.609039 
	C493.220428,260.752167 495.212646,253.820175 496.980377,246.841873 
	C498.272034,241.742905 494.354401,240.510254 490.692780,240.083099 
	C483.206818,239.209808 478.063019,242.558273 474.871918,249.457886 
	C472.444336,254.706680 469.669617,259.831604 466.591827,264.723755 
	C465.461487,266.520416 463.017120,267.490387 461.172119,268.837463 
	C460.745178,268.463898 460.318268,268.090302 459.891357,267.716736 
	C460.663727,262.637604 461.347809,257.543182 462.225830,252.482376 
	C464.437622,239.734329 466.745575,227.003006 468.992706,214.261063 
	C469.386932,212.025635 469.407532,209.681656 470.121338,207.563248 
	C470.477905,206.505051 471.942230,205.294525 473.029938,205.160156 
	C474.061401,205.032715 475.779053,205.955261 476.253632,206.892670 
	C476.944855,208.257919 476.955231,210.048447 476.972473,211.660675 
	C477.056427,219.518295 478.538971,221.000778 486.552612,221.000000 
	C487.552582,220.999908 488.789978,221.379089 489.508606,220.929367 
	C491.781097,219.507294 495.349060,218.092834 495.771790,216.111343 
	C498.567200,203.008057 500.991608,189.802261 502.854828,176.534073 
	C503.694244,170.556183 502.545441,170.018784 496.450714,170.000000 
	C485.929077,169.967560 486.035095,170.010895 481.740906,180.513702 
	C480.467133,183.629028 479.341705,187.841400 474.171356,185.514069 
	C477.141632,168.722092 480.113281,151.922607 483.022827,135.474014 
	C487.933685,133.562241 488.948059,137.178757 489.834564,139.838593 
	C490.996552,143.324921 490.815552,147.290833 492.158783,150.674744 
	C493.241943,153.403564 495.239990,156.607651 497.698273,157.771576 
	C502.316162,159.957977 507.571320,160.004822 511.785767,156.267441 
	C512.766113,155.398071 512.930969,153.267731 512.949341,151.711411 
	C513.053833,142.879654 513.529053,134.004547 512.841187,125.225441 
	C512.234436,117.481506 512.266357,115.915260 503.302551,115.963463 
	C482.137268,116.077301 460.969604,116.129730 439.806091,115.904129 
	C434.833374,115.851112 432.527466,117.779472 431.987335,122.461418 
	C431.709656,124.868599 430.938568,127.296303 431.129913,129.654739 
	C431.273376,131.422836 432.301361,134.328781 433.445557,134.603455 
	C439.430542,136.040085 437.564911,140.146667 436.952057,143.707230 
	C433.357666,164.589188 429.734131,185.466766 425.973328,206.319275 
	C423.105255,222.222107 420.012848,238.084442 417.047913,253.969986 
	C416.897308,254.776871 417.115875,255.650284 416.982269,256.463104 
	C416.206116,261.184784 415.934174,265.934204 409.622772,267.368835 
	C407.492218,267.853088 405.978180,271.049652 404.330200,272.845612 
	C404.330200,220.525665 404.330200,167.576065 404.330200,114.000038 
	C482.084930,114.000038 560.004028,114.000038 638.379639,114.000229 
z"/>
<path fill="#000000" opacity="1.000000" stroke="none" 
	d="
M863.620605,287.999756 
	C863.110413,287.593872 863.056763,287.188141 863.002441,286.474030 
	C864.830261,286.110413 866.667908,285.910919 868.485657,286.025818 
	C875.175537,286.448700 881.826965,285.395630 888.553101,285.880737 
	C895.846191,286.406738 903.206543,286.000000 910.537598,286.000000 
	C917.702026,286.000000 924.869751,285.869324 932.029785,286.046753 
	C936.676025,286.161804 939.657227,285.343903 940.222168,279.660980 
	C940.742554,274.425476 942.717285,269.583832 936.944702,265.695923 
	C935.671326,264.838257 935.704163,261.107422 936.092896,258.865601 
	C938.825867,243.103546 941.883850,227.398209 944.689331,211.648239 
	C946.903259,199.219238 948.866699,186.745850 951.011902,174.304337 
	C952.961853,162.995041 954.865234,151.673157 957.166687,140.434113 
	C957.501343,138.799850 959.715576,136.884613 961.450623,136.337234 
	C965.453796,135.074310 967.354309,132.375961 967.658264,128.635269 
	C967.997620,124.458450 970.605408,119.934631 966.244751,116.075439 
	C1006.437012,116.075439 1046.411255,116.075439 1085.711182,116.075439 
	C1084.831909,119.289604 1083.621216,122.590675 1083.077637,125.998184 
	C1082.456055,129.896454 1082.572632,133.817673 1087.587524,134.626816 
	C1084.995972,149.788071 1082.591919,164.423935 1079.972900,179.021194 
	C1077.119751,194.923584 1074.006104,210.779114 1071.122192,226.676117 
	C1068.985718,238.452881 1067.213013,250.299088 1064.856812,262.029694 
	C1064.362427,264.490906 1062.455322,267.130951 1060.435791,268.715546 
	C1057.356201,271.132019 1054.271240,280.913910 1056.633423,283.978333 
	C1057.476929,285.072662 1059.373657,285.895538 1060.801514,285.913849 
	C1072.629272,286.065735 1084.466064,286.200531 1096.283813,285.824036 
	C1098.543091,285.752045 1100.729858,283.404968 1102.961304,282.100922 
	C1106.548340,283.805664 1110.945190,285.895355 1115.014893,287.829498 
	C1070.822144,287.829498 1026.154175,287.829498 982.175232,287.829498 
	C988.166077,285.209320 994.690125,282.355927 1001.609070,279.329834 
	C1001.941223,280.111450 1002.192749,281.631439 1003.071594,282.553223 
	C1004.378662,283.923981 1006.107239,285.812622 1007.694519,285.849701 
	C1019.517761,286.126099 1031.354248,286.145050 1043.175537,285.832092 
	C1044.813843,285.788696 1047.352417,283.766388 1047.825073,282.171509 
	C1049.479858,276.587311 1051.739136,270.753052 1045.666626,265.815704 
	C1044.697510,265.027771 1045.645264,261.605682 1046.038696,259.462250 
	C1049.304443,241.665497 1052.750122,223.901291 1055.937866,206.090805 
	C1058.760620,190.319916 1061.324097,174.502579 1063.998169,158.705078 
	C1064.673462,154.715668 1065.457031,150.739304 1065.964600,146.728302 
	C1066.454346,142.857071 1064.793945,140.913010 1060.631226,140.957520 
	C1049.136108,141.080368 1037.632446,140.802307 1026.148438,141.181137 
	C1024.065552,141.249847 1020.805542,143.296997 1020.257874,145.092377 
	C1018.684448,150.250473 1016.823242,155.872086 1021.919067,160.593292 
	C1022.584961,161.210220 1022.635559,162.876175 1022.450745,163.968140 
	C1020.021057,178.318298 1017.561707,192.664139 1014.978821,206.987442 
	C1012.771423,219.228745 1010.363098,231.433731 1008.117676,243.668350 
	C1007.590454,246.540787 1007.424622,249.477707 1006.978577,252.367386 
	C1006.461609,255.716339 1002.637634,259.078857 1000.303711,257.877289 
	C997.425781,256.395660 997.964722,253.708572 998.537903,250.780487 
	C1000.899475,238.716217 1002.875671,226.576584 1005.001160,214.465973 
	C1006.845825,203.955231 1008.682922,193.443085 1010.556152,182.937393 
	C1012.684387,171.000977 1014.956909,159.088821 1016.932007,147.127380 
	C1017.522461,143.551804 1015.615479,141.076645 1011.809448,141.041214 
	C999.980835,140.931076 988.150574,140.990631 976.320984,141.023422 
	C975.549255,141.025558 974.670837,141.177231 974.023926,141.563797 
	C967.882385,145.233887 967.575745,158.198700 973.487793,162.056320 
	C970.657043,178.758118 967.907288,195.466873 964.973389,212.143234 
	C962.481323,226.308105 959.413330,240.382339 957.329224,254.603531 
	C956.377136,261.100647 956.323364,267.998138 957.405273,274.455505 
	C958.710266,282.243774 964.846130,285.999268 972.380432,287.999939 
	C936.279297,287.999939 900.178223,287.999939 863.620605,287.999756 
z"/>
<path fill="#E2D703" opacity="1.000000" stroke="none" 
	d="
M358.000000,215.000000 
	C358.000000,258.463837 358.000000,301.427643 358.000000,344.695068 
	C355.282043,344.695068 352.895386,344.695068 350.252441,344.695068 
	C350.252441,250.857193 350.252441,157.139709 350.252441,63.211380 
	C352.778076,63.211380 355.054199,63.211380 358.000000,63.211380 
	C358.000000,113.656746 358.000000,164.078369 358.000000,215.000000 
z"/>
<path fill="#000000" opacity="1.000000" stroke="none" 
	d="
M1154.312134,260.228699 
	C1158.208984,246.984436 1162.168579,234.110977 1165.340820,221.046310 
	C1167.206909,213.360397 1168.014648,205.393372 1168.940918,197.510773 
	C1169.723267,190.851593 1169.990845,184.131943 1170.750610,177.439682 
	C1170.750610,214.135010 1170.750610,250.830338 1170.750610,287.763092 
	C1155.268677,287.763092 1139.854126,287.763092 1123.730713,287.763092 
	C1139.096313,283.912659 1148.099365,273.874237 1154.312134,260.228699 
z"/>
<path fill="#000000" opacity="1.000000" stroke="none" 
	d="
M1171.000000,145.000000 
	C1171.000000,155.446976 1171.000000,165.393936 1171.000000,175.340912 
	C1170.523560,163.853424 1168.927612,152.916367 1159.391602,144.905655 
	C1149.014282,136.188217 1138.239990,139.944778 1127.226196,143.937454 
	C1126.527100,134.651825 1132.391235,125.698273 1128.795044,116.194443 
	C1142.456055,116.194443 1156.462524,116.194443 1171.000000,116.194443 
	C1171.000000,125.669205 1171.000000,135.084610 1171.000000,145.000000 
z"/>
<path fill="#000000" opacity="1.000000" stroke="none" 
	d="
M565.001465,215.055908 
	C562.332520,231.106049 560.018066,246.784149 556.855164,262.289154 
	C555.157715,270.610748 553.919434,278.430725 559.989868,285.800598 
	C555.158875,285.800598 550.829651,285.800598 546.231262,285.800598 
	C551.753967,281.765289 552.855835,272.016998 548.748779,267.144867 
	C548.035889,266.299103 547.679810,264.734161 547.861511,263.615540 
	C550.504700,247.343704 553.225586,231.084091 556.015137,214.836563 
	C558.310364,201.468399 560.755920,188.126099 563.060425,174.759506 
	C563.786804,170.546234 566.933472,169.129074 570.423218,168.389084 
	C571.046082,168.256989 573.011902,170.437576 572.864990,171.294327 
	C570.384521,185.757538 567.667542,200.180191 565.001465,215.055908 
z"/>
<path fill="#000000" opacity="1.000000" stroke="none" 
	d="
M1120.017822,179.249649 
	C1120.688965,175.992798 1121.626221,173.207947 1121.927856,170.355804 
	C1122.291870,166.915817 1124.131592,165.815033 1127.227173,166.006821 
	C1130.980591,166.239380 1130.241943,169.202896 1129.919800,171.230591 
	C1128.069946,182.875778 1126.024414,194.490814 1123.954468,206.099854 
	C1122.028687,216.899597 1120.199707,227.723648 1117.925415,238.451630 
	C1116.443237,245.443192 1114.439453,252.348099 1112.185059,259.130798 
	C1111.762085,260.403198 1109.046875,260.913696 1107.389526,261.775787 
	C1107.245117,260.226868 1106.765747,258.623413 1107.007812,257.137451 
	C1109.606689,241.189117 1112.317505,225.259048 1115.001343,209.324570 
	C1116.665039,199.446442 1118.335083,189.569366 1120.017822,179.249649 
z"/>
<path fill="#000000" opacity="1.000000" stroke="none" 
	d="
M884.268799,245.380508 
	C886.667419,232.267715 888.769592,219.523361 891.117798,206.824509 
	C891.320312,205.729233 893.032043,204.391373 894.252869,204.123337 
	C896.292175,203.675598 898.501282,204.001099 901.062500,204.001099 
	C898.855408,216.540085 896.732361,228.706802 894.563965,240.865433 
	C893.771851,245.307404 892.880615,249.731842 892.019714,254.161377 
	C890.261169,263.209473 890.257019,263.208649 884.064636,269.957642 
	C878.315796,266.053253 882.234802,260.875824 882.409729,256.288208 
	C882.544006,252.763580 883.465881,249.268982 884.268799,245.380508 
z"/>
<path fill="#000000" opacity="1.000000" stroke="none" 
	d="
M901.717773,185.998993 
	C899.293396,185.999878 897.318909,185.999878 894.911255,185.999878 
	C897.145996,173.424652 899.307007,161.236389 901.481506,149.050507 
	C901.962952,146.352432 902.038574,143.460281 903.126343,141.026306 
	C904.209595,138.602539 906.181274,136.492950 908.097961,134.580826 
	C908.598022,134.081940 910.655579,134.458359 911.432556,135.108444 
	C912.274902,135.813217 913.017761,137.401581 912.842468,138.442734 
	C910.322693,153.408966 907.685913,168.356308 904.899475,183.274994 
	C904.704895,184.316437 903.110901,185.096512 901.717773,185.998993 
z"/>
</svg>